<svg xmlns="http://www.w3.org/2000/svg" version="1.1" xmlns:xlink="http://www.w3.org/1999/xlink" xmlns:svgjs="http://svgjs.dev/svgjs" width="1000" height="1000" viewBox="0 0 1000 1000"><rect width="1000" height="1000" fill="#435e55"></rect><g transform="matrix(0.7,0,0,0.7,149.57575757575756,282.1265587044535)"><svg viewBox="0 0 396 247" data-background-color="#435e55" preserveAspectRatio="xMidYMid meet" height="623" width="1000" xmlns="http://www.w3.org/2000/svg" xmlns:xlink="http://www.w3.org/1999/xlink"><g id="tight-bounds" transform="matrix(1,0,0,1,0.2400000000000091,-0.09999999999999432)"><svg viewBox="0 0 395.52 247.2" height="247.2" width="395.52"><g><svg></svg></g><g><svg viewBox="0 0 395.52 247.2" height="247.2" width="395.52"><g transform="matrix(1,0,0,1,75.54432,97.94803864905192)"><svg viewBox="0 0 244.43135999999998 51.303922701896134" height="51.303922701896134" width="244.43135999999998"><g><svg viewBox="0 0 291.77679714956275 61.24129999999999" height="51.303922701896134" width="244.43135999999998"><g><svg viewBox="0 0 291.77679714956275 61.24129999999999" height="61.24129999999999" width="291.77679714956275"><g><svg viewBox="0 0 291.77679714956275 61.24129999999999" height="61.24129999999999" width="291.77679714956275"><g><svg viewBox="0 0 291.77679714956275 61.24129999999999" height="61.24129999999999" width="291.77679714956275"><g><svg><g></g><g></g></svg></g><g><svg><g><svg></svg></g><g></g></svg></g><g id="text-0"><svg viewBox="0 0 291.77679714956275 61.24129999999999" height="61.24129999999999" width="291.77679714956275"><g transform="matrix(1,0,0,1,0,15.582082093628085)"><svg width="244.43135999999998" viewBox="3.8499999046325684 -37.29999923706055 307.5799865722656 37.849998474121094" height="30.07713581274382" data-palette-color="#fcf6f5"><path d="M5.5-8.35L5.5-8.35 5.5-31.7Q5.5-34.3 3.85-35.15L3.85-35.15Q5.65-37.3 8.4-37.3L8.4-37.3Q13.4-37.3 13.4-31.4L13.4-31.4 13.4-9.35Q13.4-5.8 16.5-5.8L16.5-5.8 21.65-5.8Q25.2-5.8 27.05-7.8L27.05-7.8Q28.25-6.95 28.25-4.98 28.25-3 26.68-1.5 25.1 0 22.1 0L22.1 0 14.6 0Q9.6 0 7.55-1.85 5.5-3.7 5.5-8.35ZM48-24.65L43.85-11.8 51.65-11.8 48-24.65ZM65.55-2.3Q64.95-1 63.52-0.23 62.1 0.55 60.15 0.55 58.2 0.55 56.95-0.43 55.7-1.4 54.7-3.9L54.7-3.9 53.5-7 42.15-7 40.9-3.5Q39.5 0.55 36.15 0.55L36.15 0.55Q34.55 0.55 33.12-0.18 31.7-0.9 31.25-2L31.25-2Q32.1-2.35 32.67-3.18 33.25-4 33.95-5.75L33.95-5.75 44.2-32.2Q43.3-34.15 42.25-34.9L42.25-34.9Q43.8-37.3 47.05-37.3L47.05-37.3Q49.55-37.3 50.7-35.95 51.85-34.6 53.15-31.1L53.15-31.1 62.1-6.9Q63.4-3.35 65.55-2.3L65.55-2.3ZM81.2-31.2L78.34-31.2 78.34-19.45 81.2-19.45Q84.7-19.45 86.55-20.98 88.4-22.5 88.4-25.33 88.4-28.15 86.55-29.68 84.7-31.2 81.2-31.2L81.2-31.2ZM99.44-2.8L99.44-2.8Q97.75 0.55 94.05 0.55L94.05 0.55Q92.09 0.55 90.5-0.45 88.9-1.45 87.05-4.4L87.05-4.4 81.25-13.85 78.3-13.85 78.3-5.15Q78.3-2.45 79.95-1.6L79.95-1.6Q78.05 0.55 75.34 0.55L75.34 0.55Q70.45 0.55 70.45-5.4L70.45-5.4 70.45-31.15Q70.45-33.7 68.75-34.6L68.75-34.6Q70.59-36.8 73.34-36.8L73.34-36.8 81.65-36.8Q87.7-36.8 92.07-33.77 96.45-30.75 96.45-25.3L96.45-25.3Q96.45-21.75 94.5-19.23 92.55-16.7 89.25-15.3L89.25-15.3 95.15-6.55Q96.95-4.1 99.44-2.8ZM118.89-24.65L114.74-11.8 122.54-11.8 118.89-24.65ZM136.44-2.3Q135.84-1 134.42-0.23 132.99 0.55 131.04 0.55 129.09 0.55 127.84-0.43 126.59-1.4 125.59-3.9L125.59-3.9 124.39-7 113.04-7 111.79-3.5Q110.39 0.55 107.04 0.55L107.04 0.55Q105.44 0.55 104.02-0.18 102.59-0.9 102.14-2L102.14-2Q102.99-2.35 103.57-3.18 104.14-4 104.84-5.75L104.84-5.75 115.09-32.2Q114.19-34.15 113.14-34.9L113.14-34.9Q114.69-37.3 117.94-37.3L117.94-37.3Q120.44-37.3 121.59-35.95 122.74-34.6 124.04-31.1L124.04-31.1 132.99-6.9Q134.29-3.35 136.44-2.3L136.44-2.3ZM163.89-36L163.89-36Q165.94-37.3 168.24-37.3 170.54-37.3 171.79-36.1 173.04-34.9 173.04-33.05 173.04-31.2 172.14-29.05L172.14-29.05 162.54-5.8Q160.94-1.95 159.69-0.7 158.44 0.55 155.69 0.55L155.69 0.55Q154.24 0.55 153.37 0.3 152.49 0.05 151.76-0.85 151.04-1.75 150.62-2.7 150.19-3.65 149.44-5.8L149.44-5.8 140.39-31.3Q139.44-33.95 137.74-34.85L137.74-34.85Q140.09-37.3 142.94-37.3L142.94-37.3Q144.99-37.3 146.34-36.08 147.69-34.85 148.74-31.7L148.74-31.7 156.44-7.65 164.04-29.2Q164.99-32.1 164.99-33.52 164.99-34.95 163.89-36ZM190.79-6.4L190.79-6.4 198.84-6.4Q202.39-6.4 205.14-8.4L205.14-8.4Q206.74-7.05 206.74-4.85 206.74-2.65 205.14-1.33 203.54 0 200.34 0L200.34 0 189.49 0Q184.49 0 182.16-2.15 179.84-4.3 179.84-8.95L179.84-8.95 179.84-31.15Q179.84-33.7 178.14-34.6L178.14-34.6Q179.99-36.8 182.69-36.8L182.69-36.8 199.39-36.8Q203.34-36.8 205.04-35.77 206.74-34.75 206.74-32.75 206.74-30.75 205.14-29.4L205.14-29.4Q202.74-30.35 198.84-30.35L198.84-30.35 187.69-30.35 187.69-22.85 194.59-22.85Q198.59-22.85 200.26-22 201.94-21.15 201.94-19.13 201.94-17.1 200.34-15.85L200.34-15.85Q198.54-16.45 194.04-16.45L194.04-16.45 187.69-16.45 187.69-9.95Q187.69-6.4 190.79-6.4ZM224.39-31.2L221.54-31.2 221.54-19.45 224.39-19.45Q227.89-19.45 229.74-20.98 231.59-22.5 231.59-25.33 231.59-28.15 229.74-29.68 227.89-31.2 224.39-31.2L224.39-31.2ZM242.64-2.8L242.64-2.8Q240.94 0.55 237.24 0.55L237.24 0.55Q235.29 0.55 233.69-0.45 232.09-1.45 230.24-4.4L230.24-4.4 224.44-13.85 221.49-13.85 221.49-5.15Q221.49-2.45 223.14-1.6L223.14-1.6Q221.24 0.55 218.54 0.55L218.54 0.55Q213.64 0.55 213.64-5.4L213.64-5.4 213.64-31.15Q213.64-33.7 211.94-34.6L211.94-34.6Q213.79-36.8 216.54-36.8L216.54-36.8 224.84-36.8Q230.89-36.8 235.26-33.77 239.64-30.75 239.64-25.3L239.64-25.3Q239.64-21.75 237.69-19.23 235.74-16.7 232.44-15.3L232.44-15.3 238.34-6.55Q240.14-4.1 242.64-2.8ZM275.68-29.9L275.68-29.9Q275.68-28.05 274.51-26.93 273.33-25.8 271.28-25.8 269.23-25.8 267.43-27.1L267.43-27.1Q267.83-27.9 267.83-29.18 267.83-30.45 266.36-31.45 264.88-32.45 262.16-32.45 259.43-32.45 257.68-31.45 255.93-30.45 255.93-28.78 255.93-27.1 258.06-25.68 260.18-24.25 263.21-22.93 266.23-21.6 269.26-20.05 272.28-18.5 274.41-16 276.53-13.5 276.53-10.4L276.53-10.4Q276.53-5.6 272.26-2.53 267.98 0.55 261.91 0.55 255.83 0.55 251.63-1.73 247.43-4 247.43-7.6L247.43-7.6Q247.43-9.7 248.91-10.95 250.38-12.2 252.46-12.2 254.53-12.2 256.53-10.6L256.53-10.6Q255.33-9.5 255.33-7.95 255.33-6.4 257.16-5.35 258.98-4.3 262.06-4.3 265.13-4.3 266.91-5.55 268.68-6.8 268.68-8.88 268.68-10.95 266.56-12.58 264.43-14.2 261.41-15.5 258.38-16.8 255.36-18.25 252.33-19.7 250.21-21.93 248.08-24.15 248.08-27L248.08-27Q248.08-31.7 252.18-34.5 256.28-37.3 262.23-37.3 268.18-37.3 271.93-35.2 275.68-33.1 275.68-29.9ZM295.48-6.4L295.48-6.4 303.53-6.4Q307.08-6.4 309.83-8.4L309.83-8.4Q311.43-7.05 311.43-4.85 311.43-2.65 309.83-1.33 308.23 0 305.03 0L305.03 0 294.18 0Q289.18 0 286.86-2.15 284.53-4.3 284.53-8.95L284.53-8.95 284.53-31.15Q284.53-33.7 282.83-34.6L282.83-34.6Q284.68-36.8 287.38-36.8L287.38-36.8 304.08-36.8Q308.03-36.8 309.73-35.77 311.43-34.75 311.43-32.75 311.43-30.75 309.83-29.4L309.83-29.4Q307.43-30.35 303.53-30.35L303.53-30.35 292.38-30.35 292.38-22.85 299.28-22.85Q303.28-22.85 304.96-22 306.63-21.15 306.63-19.13 306.63-17.1 305.03-15.85L305.03-15.85Q303.23-16.45 298.73-16.45L298.73-16.45 292.38-16.45 292.38-9.95Q292.38-6.4 295.48-6.4Z" opacity="1" transform="matrix(1,0,0,1,0,0)" fill="#fcf6f5" class="undefined-text-0" data-fill-palette-color="primary"></path></svg></g><g><svg xmlns="http://www.w3.org/2000/svg" xmlns:xlink="http://www.w3.org/1999/xlink" version="1.1" x="258.89006" y="0" viewBox="0 0 244.70687866210938 455.6903076171875" enable-background="new 0 0 245 456" xml:space="preserve" height="61.24129999999999" width="32.88673714956275" class="icon-s-0" data-fill-palette-color="accent" id="s-0"><g fill="#ffffff" data-fill-palette-color="accent"><path fill-rule="evenodd" clip-rule="evenodd" d="M66.719 250.246c10.056-2.388 23.136-2.497 29.022-13.188C26.282 223.888 6.417 238.711 0 257.754c0.589 0.463 6.875-0.044 7.509 0 30.626 2.168 35.485 12.341 24.826 41.42-4.218 11.499-9.258 22.698-13.302 34.253-8.798 25.136 0.335 45.965 17.955 68.556-6.321-27.848 4.358-46.745 19.517-63.973C79.834 311.491 86.736 282.901 66.719 250.246z" fill="#ffffff" data-fill-palette-color="accent"></path><path d="M102.867 285.896C127.406 167.838 55.878 0 55.878 0c52.328 28.221 86.364 63.887 104.847 99.895 28.88 56.262 8.923 148.364 8.923 148.364 26.79-52.592 12.182-109.986 15.526-105.271 3.344 4.714 30.776 26.123 38.796 58.054 13.768 54.831-28.454 119.63-28.454 119.63 22.456-20.259 38.813-73.074 38.813-73.074s13.472 15.801 9.717 53.429c-5.446 54.58-63.969 81.744-63.969 81.744 10.325 2.578 45.537-19.664 45.537-19.664-7.427 19.481-20.755 38.636-30.027 45.521-17.246 12.811-54.652 14.804-54.652 14.804 14.884 5.012 29.916 4.239 29.916 4.239-34.292 31.525-82.289 11.78-82.289 11.78 11.066 10.983 16.54 14.089 19.194 14.758-12.016 4.858-37.757-2.215-53.315-21.482-7.562-9.364-18.773-37.628-11.264-58.324 8.092-22.301 20.65-35.746 33.791-45.153C83.801 324.356 99.703 301.122 102.867 285.896z" fill="#ffffff" data-fill-palette-color="accent"></path></g></svg></g></svg></g></svg></g></svg></g></svg></g></svg></g></svg></g><path d="M194.791 91.948L194.791 26.948 1.487 26.948 1.487 220.252 194.791 220.252 194.791 155.252 192.518 155.252 192.518 217.98 3.759 217.98 3.759 29.22 192.518 29.22 192.518 91.948Z" fill="#fcf6f5" stroke="transparent" data-fill-palette-color="primary"></path></svg></g><defs></defs></svg><rect width="395.52" height="247.2" fill="none" stroke="none" visibility="hidden"></rect></g></svg></g></svg>
